<svg width="167" height="38" viewBox="0 0 167 38" fill="none" xmlns="http://www.w3.org/2000/svg">
<path d="M2.24 30V7.12H21.408C23.776 7.12 25.6107 7.71733 26.912 8.912C28.2347 10.1067 28.896 11.92 28.896 14.352C28.896 16.784 28.2347 18.5973 26.912 19.792C25.6107 20.9867 23.776 21.584 21.408 21.584H7.36V30H2.24ZM20.8 11.28H7.36V17.392L20.8 17.424C21.7387 17.424 22.4533 17.1893 22.944 16.72C23.456 16.2507 23.712 15.4613 23.712 14.352C23.712 13.2213 23.456 12.432 22.944 11.984C22.4533 11.5147 21.7387 11.28 20.8 11.28ZM105.666 30V7.12H110.306V30H105.666ZM106.466 30V26.32H117.506C118.893 26.32 119.949 25.9467 120.674 25.2C121.421 24.432 121.794 23.2907 121.794 21.776C121.794 20.24 121.421 19.0987 120.674 18.352C119.949 17.584 118.893 17.2 117.506 17.2H106.786V13.52H117.506C120.365 13.52 122.594 14.224 124.194 15.632C125.794 17.04 126.594 19.088 126.594 21.776C126.594 24.4427 125.794 26.48 124.194 27.888C122.594 29.296 120.365 30 117.506 30H106.466ZM129.479 30V7.12H134.119V30H129.479ZM137.635 30V13.52H158.979C160.856 13.52 162.232 13.9893 163.107 14.928C163.982 15.8453 164.419 17.0613 164.419 18.576V30H159.779V19.152C159.779 17.8507 159.118 17.2 157.795 17.2H153.347V30H148.707V17.2H142.275V30H137.635Z" fill="#DFDFDF"/>
<path d="M30.8038 30V26.128L47.9878 11.344H31.5398V7.184H55.4118V11.056L38.1958 25.84H55.3478V30H30.8038ZM58.135 30V13.52H70.743C72.599 13.52 73.9643 13.9893 74.839 14.928C75.7137 15.8453 76.151 17.0613 76.151 18.576V22H71.447V19.152C71.447 17.872 70.807 17.232 69.527 17.232H62.839V30H58.135ZM87.7705 30.16C84.9118 30.16 82.6825 29.456 81.0825 28.048C79.4825 26.6187 78.6825 24.528 78.6825 21.776C78.6825 19.0027 79.4825 16.912 81.0825 15.504C82.6825 14.0747 84.9118 13.36 87.7705 13.36H93.6905C96.5492 13.36 98.7785 14.0747 100.379 15.504C101.979 16.912 102.779 19.0027 102.779 21.776C102.779 24.528 101.979 26.6187 100.379 28.048C98.7785 29.456 96.5492 30.16 93.6905 30.16H87.7705ZM87.7705 26.48H93.6905C95.0772 26.48 96.1332 26.096 96.8585 25.328C97.6052 24.56 97.9785 23.376 97.9785 21.776C97.9785 20.1547 97.6052 18.96 96.8585 18.192C96.1332 17.424 95.0772 17.04 93.6905 17.04H87.7705C86.3838 17.04 85.3172 17.424 84.5705 18.192C83.8452 18.96 83.4825 20.1547 83.4825 21.776C83.4825 23.376 83.8452 24.56 84.5705 25.328C85.3172 26.096 86.3838 26.48 87.7705 26.48Z" fill="#0047FF"/>
<line x1="2" y1="36.5" x2="165" y2="36.5" stroke="#DFDFDF" stroke-width="3"/>
</svg>
